<?xml version="1.0" encoding="UTF-8"?>
<svg version="1.1" viewBox="0 0 2048 2048" width="1280" height="1280" xmlns="http://www.w3.org/2000/svg">
<path transform="translate(0)" d="m0 0h2048v2048h-2048z" fill="#F7B7A9"/>
<path transform="translate(1066,386)" d="m0 0h14l1 3 3-3h40l50 2 51 4 54 6 50 7 18 3 4 2 15 1 45 6 42 4 31 2h79l50-6 31-6 24-6 26-8 21-8v10l-3 33-5 27-6 21-8 22-10 19-12 17-16 17-13 10-14 9-25 12-19 6-13 3h-6-3l-3 2-14 2-37 2-38-1-39-3-48-7-61-11-67-13-6-2-1 7-4 17-2 11-2 2v-2h-3l3 4-1 10-12 56-14 65-8 38-3 13-7 31-3 1 2 5-7 34-4 17-3 3h2l-2 12-8 37-6 28-20 93-11 51-2 5-3 3-1 2h-2v2h4l1-4-1 10-15 71-3 13-9 42-13 61-15 69-10 47-14 65-11 52-7 32-13 60-2 5h-41l-2-2v2h-196l2-12 5-21 2-2-1-1 2-13 13-61 16-73 5-25 6-25 3 1v-2l-3-1 10-47 42-196 10-47 4-17 3 1 1-2-4-1 3-11 2-11 5-24 2-6 7-1v-2l-5 2-2-2 9-42 3-4-1-1 2-14 8-37 5-23 2-3h3v-2l-3 1 1-11 7-32 9-40 3-3-2-1 6-31 14-65 8-36 12-57 7-32 3-13h4v-2l-3 1 1-10 9-42 1-3-46 1-28 2-28 4-24 5-27 7-28 11-19 9-14 8-1-2h2v-2l-5 2v2l2 1-11 8-16 12-13 12-9 9-10 13-5 6-5 9-8 14-10 21-9 25-6 21-6 31-2 12-2 3h-3v2l4-1-3 32-2 34v41l1 20 1 9v10l-2 1 4 3 4 18 6 15 6 12 3 9h-20l-24-2-19-3-3-2-2 1-5-2h-1l-9-2-19-7-16-8-14-10-13-12-10-13-7-12-6-15-4-14-5-27-1-11v-48l2-26 6-37 6-26 8-25 7-19 9-20 9-19 11-19 9-14 10-14 8-10 11-13 9-10 13-13 8-7 14-12 13-10 14-10 25-16 17-10 17-9h4v-2l25-12 33-13 24-8 5-1h2l10-4 28-7 40-8 32-5 37-4h7v2h2v-2l11-1-2 3-5 1 1 1 7-3 2 1 1-2-2-1 5-1 15-1z" fill="#61201D"/>
<path transform="translate(970,531)" d="m0 0h46l-2 12-8 37v5h2v2h-4l-2 13-5 22-3 14-15 71-6 28-8 2-18 4-21 7-28 12-18 10-11 8h-2l-1 3-8 7-4 3h-2l-2 4-11 14-13 23-9 21-6 19-5 21-4 26-3 34-1 23v27l1 19 3 22 7 16 6 13 2 8v16l-5 13-6 7-6 4-11 3-11 1h-10l-21-2-24-4-25-6-20-7-17-9-17-12-12-11-10-13-8-13-8-17-7-24-6-33v-16l6 1 16 7 15 5 4-2 1 3 5 1 2-1v2l30 4 35 2-9-20-6-13-4-15-2-7-5-2v-1h5l-2-19-1-20v-46l3-40 2-20h-3v-2l3-1 2-7 4-23 4-19 9-29 9-22 10-20 8-12 3-5 10-13 11-12 10-10 14-11 12-9 5-3-1-3 5-2v2l5-2 16-9 23-10 19-7 32-8 36-6 17-2z" fill="#F7B7A9"/>
<path transform="translate(1675,531)" d="m0 0h2l-2 7 10 4 7 5 7 10 3 11v20l-2 21-4 24-6 24-8 24-12 23-12 17-11 13-6 7-10 8-16 11-15 9-25 10-17 5-24 5-32 3h-37l-35-2-27-3-43-7-37-7-36-6-2-1-5 27-10 46-9 43-8 35-7 34-12 58-13 58-8 38-18 84-10 44-14 68-10 45-7 32-15 72-9 40-10 47-9 41-10 51-10 40-5 13-8 9-12 5-7 1h-213l-12-3-8-4-7-8-5-12v-16l4-15v-4l-28-1v-1h75v1l-11 1-6 27h210l1-9 10-46 14-66 12-54 16-75 13-60 8-38 6-29 8-38 10-43 24-113 15-70 6-26 8-40 9-42 7-33 9-39 8-40 11-46 6-30 13 2 24 5 41 8 24 4 20 4 21 3 18 2 16 2 14 1h64l30-5 22-6 20-8 19-12 15-13 11-12 11-18 9-20 7-21 4-19 4-32 2-17-34 11-21 6-23 4-16 3-20 3h-13l4-2 15-2 1-2 4-1v2l23-5 17-6 25-12 16-11 13-11 12-13z" fill="#FAE5D5"/>
<path transform="translate(978,699)" d="m0 0h1v8l-6 28-8 2-18 4-21 7-28 12-18 10-11 8h-2l-1 3-8 7-4 3h-2l-2 4-11 14-13 23-9 21-6 19-5 21-4 26-3 34-1 23v27l1 19 3 22 7 16 6 13 2 8v16l-5 13-6 7-6 4-11 3-11 1h-10l-21-2-24-4-25-6-20-7-17-9-17-12-12-11-10-13-8-13-8-17-7-24-6-33v-16l6 1 16 7 15 5 1 2h-2l2 17 5 20 7 17 6 11 10 13 11 10 13 8 12 6 18 6 21 5 23 3 26 1-6-16-4-5-5-18-3-17-2-23v-40l2-35 3-28 5-26 9-36 9-24 10-19 14-21 14-15 9-9 14-11 15-10 12-7 17-8 30-11 22-6 14-3 15-2z" fill="#FAE5D5"/>
<path transform="translate(970,531)" d="m0 0h46l-2 12-7 33-1 1-17 2-37 7-37 9-23 7-19 7-14 5-16 7-16 8-23 12-19 12-19 13-12 9-11 9h-2v2l-7 5-5 6-8 7-8 8-6 8-4 1-2 5-2 1 1-9 10-30 8-18 11-21 5-7 3-5 10-13 11-12 10-10 14-11 12-9 5-3-1-3 5-2v2l5-2 16-9 23-10 19-7 32-8 36-6 17-2z" fill="#FAE5D5"/>
<path transform="translate(970,531)" d="m0 0h46l-2 12-2-2-36 6-36 7-36 9-42 13-29 12-29 14-10 6-11 6-15 9-15 10-17 12v-3l4-4 3-5 3-4 1-3h2l2-7 17-17 14-11 12-9 5-3-1-3 5-2v2l5-2 16-9 23-10 19-7 32-8 36-6 17-2z" fill="#F7B7A9"/>
<path transform="translate(1249,564)" d="m0 0 27 5 67 13 59 10 29 4 39 3 41 1h19v2l-13 1h-55l-13-2-26-2-16-2-52-7-16-3-25-4-40-4-25-3h-2l1-8z" fill="#FAE0D1"/>
<path transform="translate(1450,598)" d="m0 0 53 2h27v2l-13 1h-55l-13-2-1-2z" fill="#F9D9CA"/>
<path transform="translate(801,574)" d="m0 0h2v2l5-2 3 1-9 5-2 3-7 3-7 5v-3l11-8 2-1-1-3z" fill="#F9D3C4"/>
<path transform="translate(1564,593)" d="m0 0 1 2 4 1-7 2-8 2h-13l4-2 15-2 1-2z" fill="#F8CCBE"/>
<path transform="translate(749,622)" d="m0 0 2 1-2 3h-2l-1 5-10 10v-3l8-10z" fill="#F9D4C5"/>
<path transform="translate(1174,682)" d="m0 0 6 1 1 3h7v2h-7l-6-2h-2z" fill="#F7BCAE"/>
<path transform="translate(1043,1732)" d="m0 0 9 2-1 3-6-1-2-1z" fill="#FBE6D6"/>
<path transform="translate(1450,1163)" d="m0 0 1 3-2 2-6 1-2-2z" fill="#FBE6D6"/>
<path transform="translate(1551,597)" d="m0 0 4 1-1 2h-13l4-2z" fill="#F9D7C8"/>
<path transform="translate(1312,519)" d="m0 0h2l4 5 2 1v3l-4-2-4-4z" fill="#F8C5B6"/>
</svg>
